<?xml version="1.0" standalone="no"?>
<!DOCTYPE svg PUBLIC "-//W3C//DTD SVG 20010904//EN"
 "http://www.w3.org/TR/2001/REC-SVG-20010904/DTD/svg10.dtd">
<svg version="1.0" xmlns="http://www.w3.org/2000/svg"
 width="250.000000pt" height="225.000000pt" viewBox="0 0 250.000000 225.000000"
 preserveAspectRatio="xMidYMid meet">
<metadata>
Created by potrace 1.10, written by Peter Selinger 2001-2011
</metadata>
<g transform="translate(0.000000,225.000000) scale(0.100000,-0.100000)"
fill="#000000" stroke="none">
<path d="M1463 2230 c-23 -5 -55 -16 -71 -24 -30 -16 -92 -80 -92 -96 0 -5 15
-40 34 -77 19 -37 41 -85 49 -105 9 -21 18 -38 21 -38 2 0 14 20 26 44 28 58
88 90 172 90 32 1 58 4 58 7 0 7 -40 101 -72 167 -22 46 -35 49 -125 32z m93
-23 c8 3 14 1 14 -5 0 -5 -7 -12 -15 -16 -22 -8 -18 -23 6 -22 12 1 24 -4 26
-10 3 -8 -17 -11 -60 -11 -62 0 -64 0 -75 30 -13 33 -7 51 8 27 5 -8 11 -19
13 -24 2 -5 16 4 32 20 17 17 30 24 32 17 3 -7 11 -9 19 -6z m-129 -47 c11
-29 9 -33 -32 -75 -25 -24 -47 -40 -50 -36 -2 5 2 14 10 21 22 19 18 28 -10
22 -15 -2 -25 0 -25 7 0 6 19 12 43 12 l42 2 -39 6 c-34 5 -37 8 -24 19 10 8
26 10 42 6 26 -6 37 8 16 21 -14 9 -12 25 3 25 7 0 18 -14 24 -30z m178 -50
c3 -5 -1 -10 -9 -10 -8 0 -18 -5 -22 -12 -4 -7 -3 -8 5 -4 14 9 53 -3 46 -14
-3 -5 1 -11 7 -13 7 -3 2 -6 -12 -6 -14 0 -36 6 -50 14 -37 21 -53 19 -40 -4
13 -24 13 -31 0 -31 -8 0 -40 61 -40 76 0 12 107 16 115 4z m-132 -51 c19 -35
22 -49 7 -49 -6 0 -14 10 -19 23 -8 20 -10 18 -20 -21 -7 -23 -16 -40 -21 -37
-6 3 -7 -1 -4 -9 4 -11 0 -16 -10 -16 -19 0 -22 40 -4 58 7 7 8 12 2 12 -5 0
-15 -5 -22 -12 -7 -7 -12 -8 -12 -3 0 10 70 85 80 85 3 0 13 -14 23 -31z"/>
<path d="M1090 1835 c-179 -33 -293 -90 -422 -214 -142 -134 -216 -282 -240
-477 l-12 -99 -60 -74 c-132 -163 -197 -307 -198 -438 0 -104 22 -161 88 -224
85 -82 170 -110 339 -110 143 0 386 46 432 83 7 5 18 6 25 2 20 -13 35 -15
151 -21 92 -5 120 -2 195 17 206 55 352 154 462 315 63 93 85 139 105 215 14
54 27 75 85 139 106 119 181 242 218 357 40 124 40 161 2 267 -35 94 -90 161
-165 197 -103 50 -276 63 -460 34 -95 -15 -107 -15 -152 0 -68 23 -208 46
-268 45 -27 0 -84 -7 -125 -14z m322 -60 c68 -18 220 -94 263 -131 29 -24 29
-26 11 -37 -11 -7 -27 -19 -36 -28 -16 -15 -21 -15 -71 6 -47 20 -57 21 -88
10 -38 -13 -113 -79 -124 -109 -4 -11 -13 -16 -22 -12 -8 3 -21 3 -29 0 -29
-11 -69 -94 -45 -94 5 0 9 9 9 20 0 11 6 20 13 20 25 0 27 -13 6 -36 -13 -14
-17 -24 -10 -29 16 -9 13 -25 -4 -25 -8 0 -19 -9 -25 -19 -13 -26 -13 -78 1
-83 6 -2 -5 -24 -24 -48 -41 -54 -46 -68 -51 -145 -4 -48 -1 -66 16 -95 35
-57 67 -79 103 -69 39 12 38 12 31 -7 -5 -14 -4 -15 9 -4 12 10 21 10 41 1 28
-12 44 -7 44 15 0 8 -9 14 -20 14 -11 0 -20 5 -20 11 0 6 -12 8 -30 5 -94 -18
-86 -20 -118 27 -41 61 -41 133 0 195 15 24 28 46 28 50 0 12 35 39 51 40 8 0
33 6 56 13 49 13 75 7 67 -15 -4 -11 2 -19 19 -25 14 -5 28 -15 32 -20 9 -16
25 -13 25 4 0 19 13 19 48 2 38 -19 76 -8 80 24 3 21 -1 24 -30 24 -25 0 -35
6 -43 23 -12 27 -25 29 -25 2 0 -29 -19 -24 -31 8 -5 15 -21 35 -34 45 -29 21
-34 8 -6 -17 21 -19 17 -56 -5 -56 -8 0 -14 5 -14 10 0 6 5 10 12 10 6 0 -1
13 -16 29 -19 20 -34 27 -49 23 -26 -7 -57 -33 -57 -49 0 -15 -35 -26 -59 -18
-15 4 -19 14 -18 41 2 35 3 36 36 30 l33 -5 -7 37 c-4 20 -7 44 -7 52 0 8 -5
25 -11 38 -9 19 -8 25 3 32 11 7 17 2 25 -20 6 -16 13 -32 18 -36 12 -12 8
-24 -8 -24 -8 0 -15 -4 -15 -10 0 -17 24 -10 53 15 15 13 27 31 27 40 0 9 5
13 10 10 6 -4 8 -11 5 -16 -4 -5 12 -9 34 -9 29 0 41 4 41 14 0 8 14 19 31 25
36 12 31 31 -6 23 -18 -3 -25 0 -25 12 0 9 5 16 10 16 6 0 10 5 10 10 0 16
-26 11 -43 -8 -12 -13 -14 -21 -6 -29 8 -8 7 -17 -3 -32 -16 -26 -25 -27 -33
-1 -5 15 -12 19 -31 14 -21 -5 -24 -3 -24 20 0 15 6 26 13 26 8 0 28 16 45 35
41 45 67 50 131 29 51 -16 66 -42 21 -36 -19 2 -21 0 -10 -13 7 -8 16 -15 20
-15 15 0 47 35 43 48 -3 6 0 12 6 12 6 0 11 -7 11 -16 0 -12 5 -14 18 -9 9 4
24 8 32 9 28 3 24 21 -6 26 -31 6 -36 19 -12 34 27 17 120 -99 185 -231 l36
-72 -56 -69 c-79 -96 -96 -110 -108 -92 -9 12 -10 10 -6 -7 3 -15 -6 -32 -33
-58 l-39 -38 -10 40 c-11 40 -40 87 -41 66 0 -7 9 -36 20 -65 l19 -52 -40 -34
c-75 -65 -180 -143 -267 -199 -110 -71 -376 -207 -394 -201 -8 3 0 12 19 22
34 17 68 69 58 86 -3 6 1 20 9 32 34 48 12 94 -57 123 -20 8 -37 21 -37 28 -1
14 -75 74 -127 102 -26 14 -54 19 -89 18 -44 -1 -53 1 -57 18 -4 16 -1 18 19
14 13 -3 35 -7 48 -10 14 -3 28 -1 31 5 3 6 -5 10 -19 10 -13 0 -27 6 -30 13
-5 10 -7 10 -12 0 -8 -19 -25 -16 -22 4 2 10 -7 22 -20 29 -15 7 -20 14 -13
19 7 3 26 -2 44 -13 32 -19 87 -36 87 -28 0 2 -27 17 -60 33 -45 21 -60 33
-60 49 0 43 -77 35 -98 -10 -14 -28 -9 -76 8 -76 5 0 18 9 29 21 23 25 35 11
21 -25 -7 -21 -6 -26 5 -26 10 0 15 -10 15 -30 0 -23 5 -30 19 -30 11 0 21 -6
24 -12 3 -9 11 -5 24 11 19 24 22 24 45 9 17 -11 29 -13 41 -6 11 6 17 5 17
-1 0 -18 34 -51 52 -51 23 0 50 -40 37 -56 -7 -8 -2 -14 18 -18 50 -13 113
-47 113 -63 0 -9 -9 -30 -19 -47 -21 -33 -21 -33 -21 -71 0 -17 -9 -29 -30
-40 -16 -9 -30 -22 -30 -29 0 -8 -16 -21 -35 -30 -37 -18 -177 -56 -206 -56
-54 0 -196 234 -225 371 -14 68 -18 279 -5 279 3 0 7 20 7 43 1 24 8 59 17 78
9 19 29 63 45 99 42 94 171 246 190 224 4 -4 1 -9 -5 -11 -9 -3 -8 -11 4 -29
12 -19 19 -22 27 -13 8 8 8 13 -1 16 -7 3 -13 11 -13 18 0 11 12 13 48 11 62
-5 92 -15 92 -32 0 -8 7 -14 15 -14 8 0 15 -7 15 -16 0 -11 -6 -15 -19 -11
-13 3 -18 0 -15 -8 9 -21 -10 -25 -52 -10 l-39 13 28 11 c33 13 31 35 -4 39
-17 2 -27 -4 -36 -23 -10 -22 -8 -27 10 -40 12 -8 27 -15 34 -15 7 0 13 -7 13
-15 0 -17 16 -20 25 -5 9 15 25 2 25 -22 0 -12 8 -22 21 -25 14 -4 19 -12 16
-24 -3 -11 -1 -22 4 -25 19 -11 9 -34 -16 -34 -27 0 -32 9 -14 27 7 7 -2 10
-30 10 -24 0 -46 -6 -53 -15 -11 -13 -10 -14 10 -8 16 6 22 3 22 -8 0 -9 7
-16 16 -16 8 0 13 -4 9 -9 -3 -5 -19 -9 -36 -9 -24 1 -39 -8 -65 -37 -18 -21
-31 -41 -29 -46 3 -4 -7 -16 -21 -26 -22 -17 -25 -24 -19 -51 8 -36 20 -42 22
-11 1 11 10 32 20 46 10 14 23 33 28 41 13 21 48 51 58 52 5 0 23 10 40 22 18
13 38 21 46 20 37 -9 42 73 6 125 -23 35 -23 38 -7 53 15 15 18 14 37 -14 15
-22 30 -32 53 -34 18 -2 32 1 32 7 0 13 33 35 83 56 21 9 36 11 35 5 -2 -6 8
-17 22 -26 46 -28 112 15 77 51 -9 8 -23 15 -31 15 -9 0 -16 4 -16 8 0 14 31
75 48 94 12 14 12 20 2 33 -7 8 -20 15 -29 15 -9 0 -22 5 -28 11 -15 15 -125
15 -193 0 -30 -7 -71 -11 -90 -9 l-35 4 55 26 c48 23 98 36 190 52 48 9 225
-4 282 -19z m572 0 c75 -20 110 -45 130 -95 22 -56 21 -60 -17 -60 -31 0 -35
4 -46 39 -11 38 -69 101 -94 101 -14 1 -55 30 -41 30 5 0 36 -7 68 -15z m-192
-49 l25 -54 -47 -4 c-33 -2 -52 2 -63 13 -10 9 -39 27 -67 40 -81 40 -64 54
71 57 l55 2 26 -54z m121 2 c62 -13 104 -49 117 -100 6 -22 10 -42 7 -44 -2
-2 -17 10 -33 28 -16 17 -22 27 -14 23 10 -5 8 -1 -4 13 -21 25 -74 42 -127
42 -29 0 -38 5 -47 25 -19 41 -23 41 101 13z m-965 -38 c1 -3 26 -2 55 3 104
18 174 19 188 5 7 -8 24 -13 38 -11 l26 4 -27 -20 c-18 -15 -24 -28 -21 -41 4
-14 0 -20 -10 -20 -9 0 -17 -10 -19 -22 -2 -15 -13 -26 -33 -31 -16 -5 -37
-13 -45 -18 -8 -5 -23 -12 -33 -16 -10 -3 -24 -18 -33 -34 -13 -25 -17 -27
-38 -18 -29 14 -44 69 -22 81 9 5 13 15 10 23 -4 8 -10 12 -15 9 -5 -3 -9 4
-9 15 0 18 -6 21 -40 21 -48 0 -51 11 -7 39 17 11 28 21 24 21 -19 0 -81 -32
-97 -50 -12 -14 -30 -20 -59 -20 -22 0 -41 2 -41 5 0 11 53 55 66 55 8 0 14 4
14 9 0 24 118 34 128 11z m1221 -25 c42 -46 65 -90 56 -106 -3 -4 1 -22 10
-38 18 -36 21 -126 4 -115 -8 5 -10 -1 -6 -18 6 -22 -1 -31 -55 -73 -37 -29
-57 -50 -49 -53 7 -2 33 15 57 39 33 32 44 39 44 25 0 -17 -64 -153 -79 -169
-4 -4 -13 10 -19 32 -15 48 -78 108 -125 116 l-34 7 39 76 c37 75 65 180 54
208 -10 26 75 18 114 -11 39 -29 41 -30 34 -12 -2 6 -19 22 -37 33 -29 20 -76
104 -58 104 5 0 27 -20 50 -45z m-314 -40 c79 -10 112 -24 145 -62 25 -28 30
-41 25 -62 -7 -30 -63 -151 -69 -151 -3 0 -16 24 -29 54 -30 65 -95 162 -131
195 -30 28 -34 44 -8 38 9 -3 40 -8 67 -12z m-605 -100 c0 -14 -45 -29 -60
-20 -22 14 -8 31 25 32 22 1 35 -4 35 -12z m786 -254 c21 -15 47 -38 58 -49
19 -21 18 -22 -23 -77 -50 -66 -56 -81 -40 -91 7 -4 10 -3 6 3 -3 5 7 25 22
44 15 19 33 44 40 57 13 25 26 22 34 -8 6 -24 -116 -182 -204 -265 -30 -28
-73 -68 -96 -89 l-42 -39 -14 34 c-22 51 -72 115 -106 135 -17 10 -31 23 -31
29 0 5 16 21 36 34 48 33 231 227 258 273 26 46 49 48 102 9z m-1606 -301 c0
-18 -43 -85 -85 -132 -13 -16 -13 -18 1 -18 9 0 18 -9 21 -20 4 -15 10 -11 29
26 26 49 29 58 15 50 -5 -4 -7 3 -4 14 8 32 20 24 31 -22 12 -44 1 -74 -22
-61 -6 3 -8 3 -4 -2 4 -4 -4 -30 -19 -58 -22 -45 -26 -49 -35 -31 -6 10 -24
33 -41 51 -26 28 -28 34 -16 49 7 9 14 22 14 28 0 15 96 146 107 146 4 0 8 -9
8 -20z m1212 -71 c-17 -16 -201 -149 -239 -172 -24 -15 -52 -27 -63 -27 -38 0
-20 31 43 70 34 21 93 60 131 87 101 70 107 73 122 60 7 -7 9 -15 6 -18z m78
-47 c31 -46 53 -104 43 -112 -71 -57 -117 -90 -214 -154 -64 -42 -120 -76
-124 -76 -9 0 -44 43 -45 55 0 6 30 27 68 48 122 69 290 193 278 205 -3 2 -12
-1 -21 -8 -14 -11 -19 -7 -16 12 0 4 -6 5 -14 1 -11 -4 -13 -9 -5 -18 7 -8 4
-17 -11 -31 -16 -14 -23 -16 -26 -6 -3 6 -9 9 -15 6 -7 -4 -6 -9 2 -14 19 -12
-101 -93 -140 -94 -8 -1 -15 -7 -15 -15 0 -8 -21 -27 -47 -42 l-47 -28 -15 24
c-9 13 -17 28 -18 33 -2 5 58 51 132 101 74 50 151 104 170 121 19 16 40 30
45 30 6 0 21 -17 35 -38z m149 -127 c-79 -155 -185 -263 -331 -337 -40 -21
-100 -45 -133 -53 -78 -21 -285 -33 -285 -16 0 6 6 11 14 11 34 0 365 179 490
265 53 37 64 38 47 7 -13 -25 8 -56 34 -51 33 7 85 119 56 119 -6 0 -18 -25
-27 -55 -24 -75 -62 -75 -49 -1 6 27 19 43 65 75 32 23 79 62 105 87 26 25 49
43 52 40 3 -3 -14 -44 -38 -91z m-1370 -33 c38 -73 89 -149 116 -170 14 -11
25 -23 25 -26 0 -12 -158 -5 -208 9 -41 12 -53 21 -58 41 -12 46 4 104 47 176
42 70 44 71 50 42 3 -16 16 -48 28 -72z m-247 9 c-2 -33 1 -74 7 -91 9 -28 8
-34 -15 -53 -17 -15 -27 -36 -31 -65 -3 -23 -10 -42 -14 -42 -19 0 -14 124 8
200 14 50 39 110 46 110 2 0 1 -27 -1 -59z m85 28 c7 -7 8 -20 4 -33 -12 -33
-22 -105 -11 -81 6 15 9 8 9 -30 l1 -49 -21 21 c-26 26 -36 97 -19 147 12 38
19 43 37 25z m960 -34 c-4 -8 -2 -17 4 -20 5 -4 7 -11 3 -16 -7 -11 -239 -129
-254 -129 -5 0 -10 7 -10 16 0 8 -5 12 -11 8 -8 -4 -8 -9 0 -17 18 -18 13 -29
-8 -17 -25 13 -41 13 -41 0 0 -5 10 -12 23 -15 15 -4 22 -13 22 -30 0 -14 -6
-26 -12 -26 -7 -1 -19 -2 -25 -3 -24 -3 -40 22 -28 43 16 31 12 38 -7 12 -13
-19 -14 -28 -5 -42 14 -22 16 -49 3 -49 -8 0 -31 82 -31 109 0 5 24 19 53 31
98 42 252 119 277 139 29 24 55 27 47 6z m29 -80 c2 -5 -54 -39 -123 -74 -90
-45 -128 -60 -136 -52 -13 13 -17 10 58 45 33 15 85 43 115 61 54 33 81 39 86
20z m28 -41 c4 -9 5 -18 4 -20 -17 -16 -383 -184 -394 -180 -27 10 -14 23 46
45 67 25 307 147 315 162 9 14 22 11 29 -7z m-1064 -31 c0 -4 -11 -30 -25 -58
-13 -27 -27 -59 -30 -70 -6 -20 -7 -20 -17 -1 -8 14 -8 24 1 37 6 11 11 24 11
30 0 15 39 69 51 69 5 0 9 -3 9 -7z m1100 -24 c13 -24 15 -22 -30 -44 l-35
-17 30 26 c35 29 20 35 -17 7 -41 -33 -316 -161 -345 -161 -36 0 2 24 129 84
75 35 161 78 190 95 63 37 64 37 78 10z m-490 -16 c0 -10 3 -27 6 -38 5 -18
-5 -23 -93 -47 -93 -25 -199 -44 -288 -50 -35 -3 -40 0 -43 19 -7 49 11 60
107 66 82 5 133 16 246 53 55 17 65 17 65 -3z m-519 -18 c24 -14 57 -25 73
-25 22 0 27 -4 22 -16 -16 -42 -17 -67 -2 -117 8 -29 25 -62 36 -72 25 -23 25
-19 0 30 -24 47 -25 65 -5 65 8 0 15 -4 15 -8 0 -20 253 28 336 64 51 22 74
18 74 -11 0 -6 12 -28 26 -48 14 -21 24 -40 22 -42 -1 -1 -37 -13 -78 -25
-135 -40 -217 -51 -347 -47 -114 3 -126 6 -187 36 -64 33 -76 48 -92 113 -6
27 10 92 29 116 14 18 30 15 78 -13z m939 -31 c0 -6 -125 -64 -137 -64 -9 1
118 69 130 70 4 0 7 -3 7 -6z"/>
<path d="M708 1494 c-36 -19 -35 -43 2 -57 16 -6 30 -19 32 -29 3 -21 23 -25
23 -4 0 7 5 20 11 27 16 22 16 69 0 69 -8 0 -20 2 -28 5 -7 2 -25 -2 -40 -11z"/>
<path d="M1722 1315 c-6 -27 -9 -51 -7 -53 6 -6 26 79 22 91 -2 7 -9 -10 -15
-38z"/>
<path d="M496 1105 c6 -51 27 -82 68 -99 50 -21 109 -86 101 -111 -4 -11 -7
-40 -7 -65 0 -44 13 -73 69 -161 13 -18 19 -35 14 -37 -14 -5 4 -102 19 -102
6 0 10 31 10 69 0 59 -4 74 -25 99 -14 17 -25 33 -25 36 0 4 -10 23 -23 44
-18 29 -22 44 -16 70 4 19 11 38 17 44 16 16 2 46 -24 52 -13 4 -26 16 -29 29
-4 13 -22 31 -43 42 -50 25 -82 55 -82 75 0 9 -7 25 -15 36 -13 17 -14 16 -9
-21z"/>
<path d="M2112 1523 c-17 -20 -30 -38 -28 -41 6 -6 56 34 73 58 25 36 -9 22
-45 -17z"/>
<path d="M2201 1540 c0 -8 6 -37 14 -65 11 -39 14 -44 14 -20 -1 30 -27 113
-28 85z"/>
<path d="M2126 1472 c-12 -14 -14 -28 -10 -52 l7 -33 15 29 c8 16 22 35 31 42
14 11 14 14 1 22 -21 13 -25 13 -44 -8z"/>
<path d="M2066 1449 c8 -40 12 -61 19 -116 4 -32 11 -50 17 -47 15 10 2 96
-21 146 -12 26 -18 33 -15 17z"/>
<path d="M2173 1438 c-31 -33 -39 -74 -17 -82 37 -14 70 53 46 92 -6 9 -14 7
-29 -10z"/>
<path d="M1988 1243 c-26 -29 -63 -93 -53 -93 15 0 95 94 95 112 0 15 -16 8
-42 -19z"/>
<path d="M1963 1117 c15 -13 27 -29 27 -37 0 -11 3 -11 12 -2 20 20 -6 62 -39
62 l-28 -1 28 -22z"/>
<path d="M1839 1071 c-29 -29 -37 -51 -20 -51 5 0 21 14 34 30 31 36 34 37 59
5 17 -22 58 -35 58 -19 0 15 -68 64 -88 64 -7 0 -27 -13 -43 -29z"/>
<path d="M1797 989 c10 -17 27 -40 38 -52 11 -12 20 -26 20 -31 0 -5 6 -11 13
-13 6 -3 12 2 12 11 0 9 5 16 12 16 16 0 76 47 88 70 19 36 -30 18 -62 -22
-29 -37 -58 -50 -58 -26 0 19 -50 78 -66 78 -13 0 -12 -5 3 -31z"/>
<path d="M1589 531 c-13 -18 -39 -36 -61 -43 -41 -12 -51 -28 -17 -28 37 0 87
30 99 61 18 41 6 47 -21 10z"/>
<path d="M386 434 c-14 -37 -6 -122 14 -145 10 -13 19 -19 20 -12 0 6 -4 14
-9 17 -15 10 -22 72 -12 115 9 40 0 58 -13 25z"/>
<path d="M313 402 c-16 -10 -6 -45 16 -59 14 -9 17 -7 16 11 -1 31 -18 56 -32
48z"/>
<path d="M2257 1773 c-15 -14 -6 -34 21 -44 15 -6 37 -20 49 -31 18 -17 25
-19 38 -8 18 15 13 24 -37 61 -41 29 -59 35 -71 22z"/>
<path d="M2395 1608 c26 -83 35 -129 35 -175 0 -48 2 -53 21 -53 21 0 22 3 16
78 -8 102 -32 172 -59 172 -17 0 -19 -4 -13 -22z"/>
<path d="M328 1253 c-28 -36 -29 -53 -3 -53 17 0 77 69 70 81 -12 19 -41 7
-67 -28z"/>
<path d="M2372 1218 c-7 -7 -12 -17 -12 -23 0 -6 -16 -34 -35 -61 -31 -43 -33
-50 -20 -63 13 -13 17 -13 29 4 41 56 78 126 72 140 -7 18 -18 19 -34 3z"/>
<path d="M123 1148 c-25 -26 -103 -149 -103 -163 0 -3 139 -115 144 -115 2 0
16 24 30 54 15 30 47 77 70 103 l44 49 -69 52 c-38 29 -73 52 -77 52 -4 0 -22
-15 -39 -32z m99 -40 c10 -9 25 -21 35 -26 15 -9 14 -14 -15 -43 -18 -19 -43
-55 -55 -81 -12 -26 -26 -47 -31 -48 -9 0 -89 68 -94 81 -2 4 4 14 13 23 13
12 19 13 30 3 9 -8 10 -16 3 -25 -6 -7 -8 -15 -5 -18 7 -7 117 100 117 114 0
7 -4 12 -8 12 -10 0 -46 -38 -59 -63 -9 -17 -11 -17 -36 3 -15 12 -27 25 -27
29 0 4 16 26 36 50 40 46 38 46 96 -11z"/>
<path d="M2013 735 c-42 -41 -56 -75 -30 -75 19 1 107 86 107 104 0 27 -33 15
-77 -29z"/>
<path d="M1769 404 c-40 -42 -125 -94 -155 -94 -11 0 -23 -3 -26 -6 -4 -3 14
-42 38 -87 49 -93 53 -94 136 -52 59 30 137 94 138 114 0 11 -87 161 -94 161
-1 0 -18 -16 -37 -36z m47 -18 c8 -8 14 -17 14 -19 0 -3 -25 -23 -55 -47 -41
-31 -59 -40 -76 -35 -14 5 -19 3 -15 -3 3 -6 -4 -18 -16 -27 -21 -14 -24 -14
-35 1 -15 21 -10 30 23 38 14 4 31 11 37 16 63 51 79 62 83 57 3 -2 -12 -19
-33 -37 -42 -36 -27 -31 25 8 22 17 29 28 21 32 -6 4 -8 13 -5 19 9 14 15 14
32 -3z m24 -45 c0 -14 -90 -83 -140 -109 -25 -13 -34 -20 -20 -16 40 10 82 34
128 72 41 34 43 34 57 16 14 -17 12 -22 -23 -52 -35 -32 -140 -92 -161 -92 -5
0 -11 8 -14 18 -2 9 -8 24 -12 33 -5 13 2 20 29 29 20 6 36 15 36 18 1 4 23
23 50 42 28 19 50 38 50 43 0 4 5 7 10 7 6 0 10 -4 10 -9z"/>
<path d="M1820 275 c-13 -14 -51 -39 -84 -56 -38 -20 -50 -29 -31 -24 17 3 48
17 70 30 43 25 95 75 78 75 -5 0 -20 -11 -33 -25z"/>
<path d="M32 332 c-9 -6 -10 -19 -4 -48 6 -30 13 -40 31 -42 21 -3 22 -1 16
35 -11 67 -15 72 -43 55z"/>
<path d="M90 175 c-17 -21 2 -42 65 -71 61 -29 95 -31 95 -6 0 13 -13 21 -44
30 -24 6 -57 23 -74 37 -26 22 -31 23 -42 10z"/>
<path d="M298 88 c-8 -21 2 -38 23 -38 14 0 19 7 19 25 0 18 -5 25 -19 25 -10
0 -21 -6 -23 -12z"/>
</g>
</svg>
